<svg xmlns="http://www.w3.org/2000/svg" viewBox="0 0 512 512" fill="none" id="Keyboard--Streamline-Solar" height="512" width="512"><metadata><rdf:RDF xmlns:rdf="http://www.w3.org/1999/02/22-rdf-syntax-ns#" xmlns:dc="http://purl.org/dc/elements/1.1/"><rdf:Description><dc:creator>RealFaviconGenerator</dc:creator><dc:source>https://realfavicongenerator.net</dc:source></rdf:Description></rdf:RDF></metadata><desc>
    Keyboard Streamline Icon: https://streamlinehq.com
  </desc><path fill-rule="evenodd" clip-rule="evenodd" d="M170.66666666666666 106.66666666666666h170.66666666666666c60.33919999999999 0 90.50880000000001 0 109.25439999999999 18.745173333333334C469.3333333333333 144.15701333333334 469.3333333333333 174.32682666666665 469.3333333333333 234.66666666666666v42.666666666666664c0 60.33919999999999 0 90.50880000000001 -18.7456 109.25439999999999C431.8421333333333 405.3333333333333 401.67253333333326 405.3333333333333 341.3333333333333 405.3333333333333H170.66666666666666c-60.339839999999995 0 -90.50965333333332 0 -109.25482666666666 -18.7456C42.666666666666664 367.8421333333333 42.666666666666664 337.6725333333333 42.666666666666664 277.3333333333333v-42.666666666666664c0 -60.339839999999995 0 -90.50965333333332 18.745173333333334 -109.25482666666666C80.15701333333332 106.66666666666666 110.32682666666666 106.66666666666666 170.66666666666666 106.66666666666666Zm-42.666666666666664 106.66666666666666c11.781973333333333 0 21.333333333333332 -9.551359999999999 21.333333333333332 -21.333333333333332s-9.551359999999999 -21.333333333333332 -21.333333333333332 -21.333333333333332 -21.333333333333332 9.551359999999999 -21.333333333333332 21.333333333333332 9.551359999999999 21.333333333333332 21.333333333333332 21.333333333333332Zm0 64c11.781973333333333 0 21.333333333333332 -9.550933333333333 21.333333333333332 -21.333333333333332s-9.551359999999999 -21.333333333333332 -21.333333333333332 -21.333333333333332 -21.333333333333332 9.550933333333333 -21.333333333333332 21.333333333333332 9.551359999999999 21.333333333333332 21.333333333333332 21.333333333333332Zm64 0c11.781973333333333 0 21.333333333333332 -9.550933333333333 21.333333333333332 -21.333333333333332s-9.551359999999999 -21.333333333333332 -21.333333333333332 -21.333333333333332 -21.333333333333332 9.550933333333333 -21.333333333333332 21.333333333333332 9.551359999999999 21.333333333333332 21.333333333333332 21.333333333333332Zm0 -64c11.781973333333333 0 21.333333333333332 -9.551359999999999 21.333333333333332 -21.333333333333332s-9.551359999999999 -21.333333333333332 -21.333333333333332 -21.333333333333332 -21.333333333333332 9.551359999999999 -21.333333333333332 21.333333333333332 9.551359999999999 21.333333333333332 21.333333333333332 21.333333333333332Zm64 0c11.782399999999999 0 21.333333333333332 -9.551359999999999 21.333333333333332 -21.333333333333332s-9.550933333333333 -21.333333333333332 -21.333333333333332 -21.333333333333332 -21.333333333333332 9.551359999999999 -21.333333333333332 21.333333333333332 9.550933333333333 21.333333333333332 21.333333333333332 21.333333333333332Zm0 64c11.782399999999999 0 21.333333333333332 -9.550933333333333 21.333333333333332 -21.333333333333332s-9.550933333333333 -21.333333333333332 -21.333333333333332 -21.333333333333332 -21.333333333333332 9.550933333333333 -21.333333333333332 21.333333333333332 9.550933333333333 21.333333333333332 21.333333333333332 21.333333333333332Zm64 -64c11.782399999999999 0 21.333333333333332 -9.551359999999999 21.333333333333332 -21.333333333333332s-9.550933333333333 -21.333333333333332 -21.333333333333332 -21.333333333333332 -21.333333333333332 9.551359999999999 -21.333333333333332 21.333333333333332 9.550933333333333 21.333333333333332 21.333333333333332 21.333333333333332Zm0 64c11.782399999999999 0 21.333333333333332 -9.550933333333333 21.333333333333332 -21.333333333333332s-9.550933333333333 -21.333333333333332 -21.333333333333332 -21.333333333333332 -21.333333333333332 9.550933333333333 -21.333333333333332 21.333333333333332 9.550933333333333 21.333333333333332 21.333333333333332 21.333333333333332Zm64 -64c11.782399999999999 0 21.333333333333332 -9.551359999999999 21.333333333333332 -21.333333333333332s-9.550933333333333 -21.333333333333332 -21.333333333333332 -21.333333333333332 -21.333333333333332 9.551359999999999 -21.333333333333332 21.333333333333332 9.550933333333333 21.333333333333332 21.333333333333332 21.333333333333332Zm0 64c11.782399999999999 0 21.333333333333332 -9.550933333333333 21.333333333333332 -21.333333333333332s-9.550933333333333 -21.333333333333332 -21.333333333333332 -21.333333333333332 -21.333333333333332 9.550933333333333 -21.333333333333332 21.333333333333332 9.550933333333333 21.333333333333332 21.333333333333332 21.333333333333332Zm-5.333333333333333 64c0 8.836266666666667 -7.163733333333333 16 -16 16H149.33333333333331c-8.83648 0 -16 -7.163733333333333 -16 -16s7.163519999999999 -16 16 -16h213.33333333333331c8.836266666666667 0 16 7.163733333333333 16 16Z" fill="#0066cc" stroke-width="21.3333"></path></svg>